HIERARCHY
ROOT joint_0
{
	OFFSET 0.000000 0.000000 0.000000
	CHANNELS 6 Xposition Yposition Zposition Zrotation Yrotation Xrotation 
	JOINT joint_1
	{
		OFFSET 7.566162 2.250183 114.799927
		CHANNELS 3 Zrotation Yrotation Xrotation
		JOINT joint_2
		{
			OFFSET -5.201660 -0.414001 104.936035
			CHANNELS 3 Zrotation Yrotation Xrotation
			JOINT joint_3
			{
				OFFSET -6.923584 -0.419739 104.718018
				CHANNELS 3 Zrotation Yrotation Xrotation
				JOINT joint_4
				{
					OFFSET 3.108887 2.881104 149.449951
					CHANNELS 3 Zrotation Yrotation Xrotation
					JOINT joint_5
					{
						OFFSET 19.988770 5.920349 90.786987
						CHANNELS 3 Zrotation Yrotation Xrotation
						End Site
						{
							OFFSET 0.000000 0.000000 0.000000
						}
					}
				}
				JOINT joint_6
				{
					OFFSET 9.283936 -30.015930 84.410034
					CHANNELS 3 Zrotation Yrotation Xrotation
					JOINT joint_7
					{
						OFFSET 47.243164 -155.716736 -23.241089
						CHANNELS 3 Zrotation Yrotation Xrotation
						JOINT joint_8
						{
							OFFSET 31.323730 -15.356873 -268.798950
							CHANNELS 3 Zrotation Yrotation Xrotation
							JOINT joint_9
							{
								OFFSET 28.122314 -2.114624 -262.450012
								CHANNELS 3 Zrotation Yrotation Xrotation
								End Site
								{
									OFFSET 0.000000 0.000000 0.000000
								}
							}
						}
					}
				}
				JOINT joint_10
				{
					OFFSET -5.580566 33.311218 83.498047
					CHANNELS 3 Zrotation Yrotation Xrotation
					JOINT joint_11
					{
						OFFSET -22.773438 160.515381 -27.138062
						CHANNELS 3 Zrotation Yrotation Xrotation
						JOINT joint_12
						{
							OFFSET 27.004395 30.848877 -267.937988
							CHANNELS 3 Zrotation Yrotation Xrotation
							JOINT joint_13
							{
								OFFSET 32.625000 14.824585 -261.518005
								CHANNELS 3 Zrotation Yrotation Xrotation
								End Site
								{
									OFFSET 0.000000 0.000000 0.000000
								}
							}
						}
					}
				}
			}
		}
	}
	JOINT joint_14
	{
		OFFSET 20.623535 -83.447632 -106.174011
		CHANNELS 3 Zrotation Yrotation Xrotation
		JOINT joint_15
		{
			OFFSET 0.661865 -23.563843 -459.915039
			CHANNELS 3 Zrotation Yrotation Xrotation
			JOINT joint_16
			{
				OFFSET -23.461670 -28.727966 -444.760971
				CHANNELS 3 Zrotation Yrotation Xrotation
				JOINT joint_17
				{
					OFFSET 178.992920 54.047363 -80.113001
					CHANNELS 3 Zrotation Yrotation Xrotation
					End Site
					{
						OFFSET 0.000000 0.000000 0.000000
					}
				}
			}
		}
	}
	JOINT joint_18
	{
		OFFSET -19.571533 84.686279 -105.380005
		CHANNELS 3 Zrotation Yrotation Xrotation
		JOINT joint_19
		{
			OFFSET -22.949951 3.639404 -459.933044
			CHANNELS 3 Zrotation Yrotation Xrotation
			JOINT joint_20
			{
				OFFSET -33.690674 4.092651 -445.010971
				CHANNELS 3 Zrotation Yrotation Xrotation
				JOINT joint_21
				{
					OFFSET 187.419678 18.953857 -76.759001
					CHANNELS 3 Zrotation Yrotation Xrotation
					End Site
					{
						OFFSET 0.000000 0.000000 0.000000
					}
				}
			}
		}
	}
}
MOTION
Frames: 7
Frame Time: 0.016667
-3002.893555 967.909302 1114.312988 0.864226 11.692741 0.715021 0.151508 9.528563 3.207641 -1.304619 -1.583785 -0.806620 -1.270690 1.952572 0.635298 -0.609682 -6.138426 4.338896 0.000000 0.000000 0.000000 4.798345 7.057111 -7.255089 -17.725521 3.928540 -17.751253 -5.213513 -61.552668 76.367279 0.000000 0.000000 0.000000 5.598685 7.557674 -0.207634 10.530129 9.137847 17.606876 -3.090590 -74.796316 -43.647347 0.000000 0.000000 0.000000 -2.197307 -11.718156 -4.468874 -3.855436 37.797719 -2.200928 -2.344517 1.327576 -1.284868 0.000000 0.000000 0.000000 -3.540563 -3.841498 1.862103 -2.753647 16.247667 -5.926703 -3.736698 4.657419 -1.825865 0.000000 0.000000 0.000000 
-2994.392822 968.549377 1110.958008 1.339143 11.601712 1.097029 0.104558 9.780940 2.483440 -1.467790 -1.597237 -0.571072 -1.506647 2.000657 0.481111 -0.630381 -6.340961 4.433220 0.000000 0.000000 0.000000 5.316577 7.316905 -6.817941 -18.035125 4.053511 -17.602922 -5.452940 -61.524549 76.970779 0.000000 0.000000 0.000000 5.691869 7.475139 0.174108 10.366280 8.987318 17.104428 -3.269573 -74.625712 -44.275679 0.000000 0.000000 0.000000 -2.107889 -13.629684 -5.616714 -3.774191 41.812993 -1.766070 -1.922359 1.680972 -1.231259 0.000000 0.000000 0.000000 -3.820786 -3.460936 1.719710 -3.001609 16.561820 -6.287366 -4.035085 4.382203 -1.895470 0.000000 0.000000 0.000000 
-2985.716553 969.012329 1108.112061 1.692972 11.423329 1.356223 0.144738 10.011477 1.939725 -1.549476 -1.605953 -0.366446 -1.654999 2.027078 0.364370 -0.631342 -6.543684 4.469541 0.000000 0.000000 0.000000 5.616225 7.544651 -6.431227 -18.498294 4.069914 -17.650953 -5.790992 -61.851854 77.721136 0.000000 0.000000 0.000000 5.633509 7.654272 0.544620 10.174197 9.057201 16.643885 -3.389785 -74.770668 -44.667509 0.000000 0.000000 0.000000 -1.983589 -14.700738 -6.606614 -3.607548 44.702876 -1.354666 -1.322606 1.688493 -1.001454 0.000000 0.000000 0.000000 -4.004222 -2.999096 1.616074 -3.177705 16.922895 -6.541282 -4.247923 4.224495 -1.945387 0.000000 0.000000 0.000000 
-2976.320557 969.275024 1106.053955 1.825459 11.062319 1.334927 0.318458 10.166763 1.815796 -1.466916 -1.591545 -0.281832 -1.607695 2.031856 0.312897 -0.601629 -6.748400 4.415624 0.000000 0.000000 0.000000 5.552130 7.754782 -6.092727 -19.207919 3.925948 -18.023312 -6.299146 -62.783921 78.624280 0.000000 0.000000 0.000000 5.281772 8.319221 0.862608 9.843907 9.520442 16.173919 -3.436109 -75.364806 -44.323353 0.000000 0.000000 0.000000 -1.668324 -14.363551 -7.191214 -3.268955 46.049177 -0.910506 -0.272834 0.969898 -0.383082 0.000000 0.000000 0.000000 -3.991977 -2.272043 1.631980 -3.206374 17.290250 -6.598427 -4.280362 4.194553 -1.943520 0.000000 0.000000 0.000000 
-2966.750000 969.360657 1104.503052 1.777976 10.640705 1.129728 0.572237 10.245685 1.964440 -1.270909 -1.547792 -0.285034 -1.422896 2.014498 0.300377 -0.551907 -6.947620 4.302738 0.000000 0.000000 0.000000 5.259153 7.919656 -5.791212 -20.123753 3.651201 -18.610731 -6.935412 -64.125078 79.738312 0.000000 0.000000 0.000000 4.781936 9.260933 1.158143 9.468172 10.191668 15.749959 -3.420987 -76.276265 -43.735647 0.000000 0.000000 0.000000 -1.281874 -13.273599 -7.509715 -2.902416 46.445812 -0.510415 0.817239 -0.341105 0.449588 0.000000 0.000000 0.000000 -3.862890 -1.473759 1.748200 -3.137960 17.698935 -6.560877 -4.204693 4.269390 -1.914109 0.000000 0.000000 0.000000 
-2958.295166 969.733887 1103.655029 1.495839 10.447561 0.858419 0.881407 10.276130 2.351004 -1.016340 -1.509673 -0.365128 -1.160178 1.993580 0.341029 -0.493531 -7.105417 4.155014 0.000000 0.000000 0.000000 4.992730 7.856054 -5.625307 -20.964879 3.312162 -19.115664 -7.449471 -65.185045 80.797774 0.000000 0.000000 0.000000 4.426070 9.890800 1.260376 9.208863 10.626971 15.511517 -3.433045 -76.933023 -43.661487 0.000000 0.000000 0.000000 -1.118933 -12.495086 -7.709878 -2.774306 46.561905 -0.562750 1.039748 -2.070647 1.140063 0.000000 0.000000 0.000000 -3.694665 -1.092570 1.903833 -2.989758 18.273017 -6.580945 -4.078039 4.562421 -1.889972 0.000000 0.000000 0.000000 
-2951.904053 970.848022 1103.822998 0.874441 10.655434 0.552418 1.288314 10.264856 3.020058 -0.709843 -1.485894 -0.529519 -0.827465 1.971986 0.456040 -0.425799 -7.206062 3.971615 0.000000 0.000000 0.000000 4.882024 7.435551 -5.683969 -21.612740 2.927250 -19.401345 -7.717714 -65.681004 81.651510 0.000000 0.000000 0.000000 4.365462 9.848476 1.051631 9.209133 10.586631 15.602516 -3.514308 -77.078826 -44.654460 0.000000 0.000000 0.000000 -1.303882 -12.563340 -7.880166 -2.973390 46.838806 -1.312863 0.042547 -4.399169 1.620933 0.000000 0.000000 0.000000 -3.506338 -1.473334 2.058830 -2.735661 19.167449 -6.735972 -3.898570 5.182580 -1.882122 0.000000 0.000000 0.000000 
